<svg id="Layer_1" data-name="Layer 1" xmlns="http://www.w3.org/2000/svg" viewBox="0 0 107.74 104.34"><defs><style>.cls-1{fill:#464646;}</style></defs><title>Untitled-1</title><path class="cls-1" d="M653.62,424.71c-1.36-1-1.33-.48-2.4-1.39,1.2.54,2.4,1,3.61,1.46l.1.06c-.81-.38-.34.58,1,1.11l-.47-.07a5.35,5.35,0,0,1,2,1.08c-1-.52.36.51.47.71a48.58,48.58,0,0,1-5-3.26c.08,0,.27,0,.71.3m20.63-91.82.75-.14a5,5,0,0,0-.75.14m-23.87,90-1.1-.55a5.89,5.89,0,0,0,1.1.55m0,0,.83.39-.33-.31a.9.9,0,0,1-.5-.08m4.45,1.85.79.27c-.75-.39-1.58-.9-2.61-1.5.59.43,1.2.84,1.82,1.23M649,421.42c-1.09-.73-.92-.18-2.34-1.55.68.42,1.08.27-.2-1.09-1.74-1.56-3.24-2.83-4.67-4.16a31.61,31.61,0,0,1-4.13-4.53c.11-.27-1.65-3.3-2.25-4.9a15.71,15.71,0,0,1,1.77,2.7c-.38-.73-1-2-1.41-2.95l-.64-.17c-1.88-4.34.81.91.06-1.13-.55-1.19-.88-1.55-1.22-2.3,1.5,3.44-.81-.23.72,3.26-.54-.35-1.4-2.41-1.72-3.68-.16-1.5.63,1.13,1.07,1.31a4.77,4.77,0,0,0-.91-1.69c-.7-2.29-1.76-4.67-1.62-6.18a13.41,13.41,0,0,0-.84-2.5c-.33-.12.14,2.1.17,3,0-.08,0-.13.05-.09.09.5.16,1,.26,1.5-.21-1.43.37.11.58.85.15.53.46,1.6.33,1.48l-.29-.8c.18,1.1.91,2.23,1.1,3.38-.06.08-.23-.32-.29-.36.64,1.14,1,2.32,1.95,4-.26-.28-.5-.58-.75-.87a20.88,20.88,0,0,1,1.6,3l1.72,3.65c-.08-.26-.28-.7-.08-.49.77,1.18,1.13,2.22.62,1.77a23.52,23.52,0,0,1,1.89,2.82,12.82,12.82,0,0,0,2.36,2.95,46.14,46.14,0,0,0,7.36,4.72,6.87,6.87,0,0,1-.82-.58c-.31-.79-.64-1,.57-.38M630.85,394.9a2.18,2.18,0,0,0,0,.25,1.78,1.78,0,0,0,0-.25m10.33,18.67a1.46,1.46,0,0,0,.17.33,3.41,3.41,0,0,0-.17-.33m-3.78-5.32-.21-.36.18.35h0m13.05,13.57c.26.12.43.23.69.34-.15-.08-.33-.2-.5-.31s-.26-.13-.19,0m.4,1h-.19l.23.22c.06,0,.07-.1,0-.22m-18.12-35.65-.08-.43a2.11,2.11,0,0,0,.08.43M639.39,411c.37.75,1.25,1.68,1.79,2.59-.14-.45,1.26.93-.36-1.05.13.16.09,0,.22.18a36.33,36.33,0,0,0-2.14-3.05c-.32-.79.91,1.06.54.35a27.27,27.27,0,0,1-1.71-2.95c-.54-1-1-1.81-1.18-1.65a4.33,4.33,0,0,1-.62-1.73,14.92,14.92,0,0,1-1.77-4.18c-.48-1.56-.81-2.89-1.12-2.8a20.93,20.93,0,0,0,1,2.89l-.43.14c.55,1.54.37.08,1.17,2.23l-.22-.64c.69,1.5,1.79,4.17,2.72,5.9-.24-.13.4,1.14.09,1.05a11.77,11.77,0,0,0,2,2.72m23.67,21.53c.77.25,1.48.4,1.44.52l-.86.27a33.85,33.85,0,0,1-4.27-1.93c-1.15-.62-2.22-1.24-3.73-2.16-.19-.2.2,0,.39.07-2.15-1.2-5-3.48-6.55-4.46-.61-.49-2-2-1.35-1.59a7.48,7.48,0,0,1-1-.79c0-.21.75.62.87.52-.25-.24-.33-.36-.42-.37.54.26,0-.84,2,.92.51,1-1.44-1.18-1.28-.42.67.59.71.39.81.39.86.75.77.82.65.87.42.17,1.42,1.23,2,1.4,1.8,1.29-.32.23.86,1.08l1,.07q1,.72,2,1.41c1.53.84,1.54.57,1.6.34s.17-.43,2,.39c-.57,0,.59,1.15,2.22,2a22.09,22.09,0,0,1-4.14-1.95c.77.68.17.34-.54-.05s-1.52-.89-1.19-.41a21,21,0,0,1,3.51,1.88l-.4-.16c1.21.7,2.37.7,4,1.66.89.35.67.41.47.46m-1.66-.75a4.13,4.13,0,0,0,1.14.58l-1.14-.58m47.42-94c-.16,0-.33-.11-.51-.17.33.13.62.24.51.17m27.74,44.77a.56.56,0,0,0-.1.3c.09,0,.12-.15.1-.3m-33.44-46.91-.05,0-.14,0Zm-24,100.3-.32.1c.26,0,.34-.07.32-.1m40.48-15a1.61,1.61,0,0,0-.32.09c0,.08.06.06.32-.09m-32.89,15.2a1.64,1.64,0,0,1-.35.14,1.5,1.5,0,0,0,.35-.14m38.24-24.79-.08.2.09-.09Zm2.26-2.56a4.45,4.45,0,0,0-.16.48.73.73,0,0,0,.16-.48m5.93-11.37c0-.16.06-.34.08-.56Zm-74.67,29.46c-.46-.28-.91-.59-1.36-.89l-.2-.08c0,.12,1.45,1.21,1.56,1m71.05-65.55a7.82,7.82,0,0,1,.74,2,1.74,1.74,0,0,1,0-.76c-.22-.47-.51-.75-.78-1.21m8.22,21.77c-.33-.63-.93-1-1.17-.58a11.31,11.31,0,0,1-.52-2.66c.18-.19.27-1.61.56-.71-.41-3.14-.46.46-1-.44.37,3.43,1,5.49,1.14,7.74l-.14,0c0,.57.1,1.14.13,1.7.19-1.36.88-1.24.47.52v-.22c-.37,1-.32,3.14-.68,4.7l.17,1.15c-.4,1.57-1.14,1.45-1.7,1.83a37,37,0,0,0-.88,5.72c-.56.66-2.15,4-1.71,2.07a5.79,5.79,0,0,0-.05,2.44c0,.73-.19,1.63-1.59,3.09l.23-1c-.87,1.64-1.93,3.64-3,5.35a17.05,17.05,0,0,1-2.85,3.65c0-.88-.93-.16-2.08.68s-2.5,1.8-3.09,1.63c.3.05-.63,1-.69,1.26a1.83,1.83,0,0,0-1,.85c1.2-.78,0,1.47,1.73-.65a10,10,0,0,1-4.07,4.85l-.21-.36c.68-.44,1.35-.89,2-1.35-.39-.09.6-.85.89-1.28-1.81,1.33-1.87,1-1.89.78s0-.44-1.82.92c-.2.47,0,.22-.93,1,.45-.32.36-.61-.37-.11l-.52.75c-1.69.29,1.89-1.82.5-1.47,1.23-1.23,3.4-3.23,2.62-3.31a5.71,5.71,0,0,0-1.82,1.94,4.88,4.88,0,0,1-2,1.87l-.39,0c-.77.69-.72,1.07-1.09,1.55-.11-.08-.38,0-1,.28-1.25,1.32-2.24,1.94-3.48,3.13a24.1,24.1,0,0,1,3.62-1.85,13.62,13.62,0,0,0,3.58-2.15c-.48.56-3.14,2.3-3.05,2.86l-.17-.37a15.1,15.1,0,0,1-4.18,2.4l.94-.67c-2.13,1.29-4,1.08-5.57,2.31a10.93,10.93,0,0,0,1.16-.4,18.69,18.69,0,0,1-3.59,1.2c-.85.46-1.72.9-2.6,1.31,0-.18-1.8.19-1-.28-2.06.15-2.91.81-4.08,1.07-1.07-.06-.62-.16.1-.31s1.73-.39,1.78-.67c-2.86.34-5.85.71-7.47,1.08.59.06.88.09.85.19a9.9,9.9,0,0,0-1.9,0l-.44.23c-1.09-.16-.93-.29,0-.47-1,0-2.27.37-3.31,0,1.76-.17,4,.06,4.9-.15a11.36,11.36,0,0,1-3.79-.23,26.57,26.57,0,0,0-4.47-.51c0-.11.74-.23-.13-.33-2-.18-.59.39-1.26.55a8.4,8.4,0,0,1,3.21.65l-.44.14c-.06-.1-1.06-.2-1.34-.33l-.3.33c.16-.4-1.39-.9-2.65-1,1.21.51.88.42,1.16.94-1.85.14-1.92-.75-4-.73.18-.08,1.9.18.44-.23-1.21-.3-1.12.05-2-.07,1-.09.81-.39,1.88-.55a18.57,18.57,0,0,0,3,.44c-.58-.2-1.16-.39-1.73-.61,1.82.29,1.38-.14,1.55-.24-3-.89-2.41.07-4.36-.49-1,0,1.83.51.29.37-1.83-.52-.47.12-2.57-.34l.39,0a7.15,7.15,0,0,0-2-.55c-.82-.2.55,1.44-2.74.22.19,0,.27-.05.28-.08a41.8,41.8,0,0,0,4-1.5,41.94,41.94,0,0,1-10-4.61c-.54-.87,2.61.95,2.52.6.5.29,1,.57,1.53.85-.19.19-3.32-1.56-2.08-.5,2.84,1.23,4.06,2,7,2.54a6.17,6.17,0,0,0-2.28-1,13.43,13.43,0,0,1-2.5-1.1c-1.34-.61-2.66-1.28-3.93-2-.62-.23-1.09-.31-1.25-.18l.27.18-.63-.24-1-.74-.43-.22.24.08c-.33-.25-.66-.49-1-.75l-.44-.26a.38.38,0,0,0,.18.05l-.31-.25a32.69,32.69,0,0,1-3.66-2.08,16.77,16.77,0,0,1-2-1.57c.45.41,1,.78.86.54a15,15,0,0,0-3-3.2l1,1c-.85-.61-1.69-1.24-2.51-1.91-.57-1,1.22,1,1.67,1.16-1.86-1.58-2.59-3.59-3.62-4.2.12-.28.29-.75-.65-2,.42,1.09-.7-.66-.42.28-.44-.36-.92-1.5-1.12-1.48l.2,0a12.51,12.51,0,0,0-2.78-3.86,42.35,42.35,0,0,1-3-6.77,2.77,2.77,0,0,0-.06-2c-.37-.39-1.09-2.66-1.4-2.84.37,1.87.62,1.44,1,2.51,0,1-.24.16,0,1.45-.12-.52-.51-1.63-.84-2.78a12.89,12.89,0,0,1-.58-2.92l.12.38c-.21-1.83.3-2.25-.46-5.18-.1-.47-.21-.94-.29-1.41,0,.06.06.07.08.11-.15-2.36.15-1.72-.12-4.31,0,.2,0,.08.06.28.11-1.47-.1-3-.07-4.09.24-.67.17.17.29.6.21-2.58.3-5.39.43-7,.14-.54.31-1.08.46-1.62-.16,1-.2,2.21,0,1.94a11.43,11.43,0,0,1,.34-2,7.26,7.26,0,0,1,.05,1c.07-.36.17-.72.25-1.08-.06-.06-.11,0,.16-.67.07-.29.15-.58.23-.86a1.4,1.4,0,0,0,0-.81c.21-.47.39-1,.61-1.41a13,13,0,0,1,.93-3.16c0-.17-.52.87-.62,1.34a7.41,7.41,0,0,1,.67-2.17,14.68,14.68,0,0,0,1.27-2.48c.54-1.1,1-2,1-1.51a46.17,46.17,0,0,1,3.21-5.44c1.19-1.76,2.42-3.3,3.22-4.26.58-.6,1.74-1.82,1.12-1a42.58,42.58,0,0,1,5.53-5.3,12,12,0,0,0-1,.84,48.69,48.69,0,0,1,5.4-3.94c-.33.22-.48.33-.55.39.21-.16,1.09-.74,1.66-1.1.39-.22-.5.33-.28.21a54.66,54.66,0,0,1,7.3-3.71,48.29,48.29,0,0,1,6.45-2.17,6.82,6.82,0,0,0-.93.3c.53-.14,1.06-.29,1.6-.42s1.82-.45,2.84-.65c.12,0,.62-.1.12,0,1.61-.27,2.87-.45,4.23-.61a34.4,34.4,0,0,1,4.8-.31c-1.61.05-3.23.16-4.83.35l1.2-.07-.34,0c1.31-.1,2.64-.17,4-.17a50.05,50.05,0,0,1,29.33,9.45l.3.18-.16-.08.53.38c1,.66,2.45,1.58,3.83,2.59l.07-.05c-.16-.2.48.35.8.69h0c.92.68,1.77,1.36,2.47,1.94a5.44,5.44,0,0,0-.68-.84c-.33-.18-1.82-1.64-1.77-1.28a28.48,28.48,0,0,0-2.45-2.08c.92.9-.83-.4-1.07-.45-.26-.36-1.52-1.12-1.3-1.15a6.16,6.16,0,0,0,.94.7c.59.34.12-.06-.33-.42s-.88-.68-.14-.26a54.43,54.43,0,0,0-6.18-3.55l1.05.63c-.83-.5-2.91-1.5-3.05-1.61.66.3,1.42.67,2.25,1.08.12-.12-2-1-2-1.11-.85-.32-1.69-.62-2.54-.91l1.07.47c-.7-.25-2.93-1.26-4.66-1.83a33.7,33.7,0,0,1,4.38,1.59c1.3.5-.73-.48.5,0a9.14,9.14,0,0,0-1.51-.62l-.48-.21a55.34,55.34,0,0,1,5.24,2l-.33-.1,3.59,2a7.26,7.26,0,0,0-1.21-.69c0-.07,1.09.53,1.53.74-1-.67-.14-.22-.81-.64a17,17,0,0,1,2.13,1.24c.39.34-.42-.14-.39,0,.9.49,1.14.94,2.43,1.7-1.6-1.17.59.08,1.2.43l-.27-.2a3,3,0,0,1,1.31.94c-.69-.45-1.31-.94-1.21-.69.44.31.87.64,1.39,1l-.52-.25c.72.53,1.43,1.08,2.12,1.65a12.68,12.68,0,0,0,1.56.57,9.8,9.8,0,0,0,1.65,1.44l-.26-.15a25.48,25.48,0,0,0,3,2.84c.47.69-4.89-3.77-.67.54,1.5,1.73,1.34.76,2.35,1.67,0,0-.09,0,0,.09a10.23,10.23,0,0,0,1.43,1.39,6,6,0,0,0-1.1-1.41c.39.1,1.31,1.68,1.93,2.22-.9-.63,1,1.69.4,1.14a21.05,21.05,0,0,0,3.1,4.35c.18,1.45,1.22,2.13,1.91,4.32-.13-.33-.45-.88-.61-1.34-.85-1,.8,2.2-.31.51.23.36.19,0-.05-.42-.35-.68-.81-1.25-.87-1,.18.58.33,1.18.48,1.77l-.34-.55c.26.89.46,1.78.65,2.68.1,0,.09-.23.08-.36a64.54,64.54,0,0,1,2.61,9.24c.6.17,1,1.87,1.31,3.82a52.52,52.52,0,0,0,.73,5.32m-11.64,26c-.26.42-.53.84-.8,1.25.05.05.14,0,.36-.21s.34-.75.44-1M669.8,430.93l-.88-.29c.06.15.13.29.49.48Zm11,2.29c.13-.1-.27-.17-.71-.23s-1-.1-1.59-.16c0,.06-.14.11-.34.14.55.11.92.24.67.47-1.38-.69-1.33.27-2.88-.1-.54.22,1.71.53,2.19.46.61-.29,2.52-.16,2.66-.58m2,0a18.6,18.6,0,0,0,4,0c.4-.12,1.11-.37,1.85-.67l-1.28.1h0c.4.21-.59.54-4.12.55l-.46.06m9.26-.57c1.38-.14,1-.29,1.21-.49-.47.12-.94.23-1.42.32.19,0,.3.05.21.17m16.33-4.91c.69-1,3.32-2.7,2.36-2.42-.72.44-1.55,1.3-2.33,1.32.46-.3.91-.62,1.37-.93l-1.08.29a.58.58,0,0,0,.28-.17c-.85.5-1.72,1-2.61,1.43.59-.1.75.09-.28.76.06-.2-.48-.14,0-.48l-.74.23c-.68.33-1.38.64-2.08.95-.05.08,0,.15.14.19,1.8-1.36.76.44,2.18-.64a10.94,10.94,0,0,1-2.37,1.45c.73-.63-.46-.52-1.79-.16-.52.31-2.07.75-3,1.18.44.21-.34.65,1.24.22a7.33,7.33,0,0,1-2.47.74c.39-.16,1.07-.41,1-.51a14.2,14.2,0,0,0-1.92.11c-.32.11-.65.2-1,.3a.93.93,0,0,1,.27.05c-.35.18-.69.37-1.05.54,1.45-.49.72,0,.75.17-.05-.36-1,.17-1.49.29l1.21.15c-.5.31-2,.12-1.62.44a21.81,21.81,0,0,0,5.43-1.35l-.95-.05c2.3-.93,1.64.1,4.29-.86,1-.63,3.67-1.57,3.69-2.16a5,5,0,0,0,2.53-1.08m24.84-29.91c.75-1.79,0-1.93,0-2.43-.13-2-1,1.68-1.47,1.32-.45,1.53-1,3-1.56,4.49a1.18,1.18,0,0,1,0,.27,3.25,3.25,0,0,1-.34,1h0a3.37,3.37,0,0,1-.54.73c-.55,1.21-1.15,2.41-1.79,3.57a7.41,7.41,0,0,0,1.24-1.67c.34.48-1,2.49-1.49,3.69a1.37,1.37,0,0,1,0-.3c-1.42,2.86-.67,0-2.19,2.67l-.07.18-.05-.45a50.84,50.84,0,0,1-8.81,9.77h.05a13.13,13.13,0,0,0,4-3.22l-.23.33a8.51,8.51,0,0,0,2.48-2.87,14.56,14.56,0,0,1,2.52-3.35,12.54,12.54,0,0,0-.94,3.15c.28-.47.53-1,.79-1.44.14.67.92-.79,1.61-1.76l-.1,1.23a9.35,9.35,0,0,0-1.62,1.94,13.05,13.05,0,0,0-3.09,2.71c.43.18,2.48-2.43,2-.88.64-1.18,1.06-1,1.8-2.22-.59,1.22.25.61-.14,1.57.45-.62.88-1.25,1.3-1.88.18.05-1.82,2.81-.24,1.65.43-.84,2.09-2.7,1.74-3l.15,0c1.05-1.39-.1-1,1.25-2.62-.18-.14-.53.12-.89.78a6.48,6.48,0,0,1-.74,2c-.62.29.94-1.28-.08-.86-.47.22-1.81,2.95-1.78,1.79.36-.44.72-.87,1.07-1.32-.34-.29.36-1.28,0-1.46.42-.93,1.36-1.49,1.55-2.59-.05-.52-.89-.14.15-1.52a7.88,7.88,0,0,0,1.95-2.74,21.83,21.83,0,0,0,1.27-3.2c.07-.44.12-.88.17-1.32-.28,0-.82,2.32-.87,1.42.21-.63.4-1.27.58-1.91l.12.2a7.3,7.3,0,0,0,.36-1.92c.14.69-.45,2,.1,1.9a6,6,0,0,0,.77-1.81c0,.19,0,.37,0,.36m-.16-5.64c.46-1.29.38,0,.67-1.84-.47,0-.29-1.25-.26-2.47-.15,1.41-.37,2.8-.63,4.18.05.13.12.19.22.13m.61-5c.44-.12.42-2,.47-2.62-.09-.38-.13-1-.22-1.44a.57.57,0,0,1-.17.26c0,.93-.06,1.86-.13,2.78.11-.14.12.09,0,1m1.8-7.46a13.72,13.72,0,0,0,.22-2.61c-.08-.08-.93-2.73-1.34-3.42,0,.62,0,1.23.05,1.85a24.23,24.23,0,0,0-.9-4.15c-.19,0-.11,2,.37,2.14-.25.27-.69-1.91-.73-.47a37.67,37.67,0,0,1-1.24-5.39l.4-.34c-.26-1.35-.82-.7-1.11-2.3.76,1.83.37-.49.95,1,0-.53.48-.17-.13-1.66-1.06-1-.29-1.71-1.31-2.65-.19-.84.72.68.07-.86-1.13-1.58-1.29-1.36-1.7-1.29.69,1.61,1.38,1.54,1.89,2.9-.62-.78-1.24-1.55-1.88-2.28a4.59,4.59,0,0,0,.46,1.14,5.13,5.13,0,0,0-.9-1.19c-.06-.06-.1-.11-.16-.16a50.45,50.45,0,0,1,4.62,14.22,23,23,0,0,1,1.1,6.19c.38-.46.51-2.62.53-3.65.18.28.35.57.52.86l-.28.59.5,1.55m-10.84,35s0,0,0,0,0,0,0,0m-53.84-81,1.32-.34-1.32.34m32,98.87.39-.18-.39.18m-54.1-12.24c-.07-.07-.16-.14-.22-.21l.22.21m57.17,8.5v-.07a0,0,0,0,0,0,.07m28.54-53.23v.33c0-.08,0-.2,0-.33m-33.48-40.69c-.73-.18-1.18-.31-2.3-.66-.36-.3,1.85.52,2.41.53a43.88,43.88,0,0,0-4.44-1.15l2.45.76a11.55,11.55,0,0,0,1.88.52m1.1.13-.11,0-1.15-.35.11,0Zm31.8,30.26.49.66-.3-.57Zm.94-.49-.41-.47c.26.53.51,1.06.75,1.61-.12-.38-.22-.76-.34-1.14m.27,11.56-.3-1c.08.2.05,1.59.3,1m1.82,7.94a.53.53,0,0,0,.09-.11.65.65,0,0,0-.09.11m.1-.1c.26-.11,0,2.06.35.72,0-1.11-.19-.92-.35-.72m-4.84,12.91a2.79,2.79,0,0,0-.46,1.33,5,5,0,0,0,.46-1.33M729.48,404l.23-.42c0,.52.05.3.09-.16.19-.47.06-.5,0-.59l0-.35,0,.44c-.32.72-.52,1.15-.27,1.08m6-4.25.07-.43-.18-.83Zm-13.77,19.77c-2.52,1.93.54.2-1.18,1.77,1.08-.84,1.88-1,1.89-.81.75-1.26-2.23,1-.71-1m-18.45,10.16a3.67,3.67,0,0,0-.38.27c.16-.1.27-.19.38-.27m12.83-4.92a2.25,2.25,0,0,0,.21-.24l-.21.24m0,0c-1.08,1.17-3.7,2.88-3.27,3.15a7.48,7.48,0,0,0,2.49-1.95l-.43.22c.42-.46.82-.94,1.21-1.42m-9.8,3.4a7.57,7.57,0,0,0,1.56-.87c-.26,0-1.75.71-1.56.87m-18.71,7.64c.54.31.55,0,1.71-.06-.41.16-.83.3-1.25.44,1,0,1.8-.51,1.53-.57-.66.08-1.33.13-2,.19m-44.78-20.94c.3.33.6.67.92,1l-.35-.41Zm-3.49-6.14a7.38,7.38,0,0,0,1.18,1.91c-.75-1.17-.38-.69-1.18-1.91m-.56,2.4-.79-1.14,0,.13ZM634.55,402c-.19-.37-.36-.75-.53-1.13l0,.14c.18.38.35.75.54,1.13Zm-2.19-7.59a3.2,3.2,0,0,0,.27.7c-.1-.29-.19-.5-.27-.7m-1.9-4.33c0-1.5.48,2,.24-.74.14-.26.49,1,.61,2.25-.18-.07-.28-1.22-.33-.41.3.82.23,1.16.42.83a16,16,0,0,0,1,2.4c-.5-1.65-.8-5.24-1.22-7.38-.37-1.17-.7-.42-1.12-.39-.1.19.11,3.37.44,3.44m.16,3.71c.12-.14-.17-.75-.26-1.3a7.16,7.16,0,0,0,.26,1.3m2.32-17.88c-.05.6-.11,1.19-.14,1.79A1.59,1.59,0,0,1,633,377c0-.13,0-1.31-.08-1.07m-.19,2.57,0-.78c0,.19,0,.43,0,.78m.32-1.58,0,.08s0,0,0-.08m46-44.71,1-.09c-.92,0-2.85.26-3.38.37.47-.09,1.94-.23,2.47-.29Zm34.08,16.26c-1,7.85-4.1,11.14-4.1,11.14s-.17,1.42-12.7,1.42c-11.5,0-11-1.42-11-1.42-7.5-20.81-28.33-9.32-28.33-9.32v25.21s20.83,11.49,28.33-9.32c0,0-.48-1.41,11-1.41,12.52,0,12.7,1.42,12.7,1.42s3.12,3.29,4.1,11.14c0,0,.38.67.38.1V348.35c0-.57-.38.1-.38.1m.17,65.69s0-1.21-1.66-1.21-11.33-.5-11.33-.5-1.66,0-1.66-1.47,1.78-1.47,1.78-1.47l11.89-.17s1.7.1,1.7-1.34-1.7-1.39-1.7-1.39l-11.89-.1s-1.78,0-1.78-1.47,1.66-1.47,1.66-1.47,9.7-.51,11.33-.51,1.66-1.2,1.66-1.2,0-1.17-1.58-1.17H699.46a9.27,9.27,0,0,0-5.1,2.74s-.78.72-3.69.72h-30.8a3.88,3.88,0,0,0,0,7.71h30.8c2.91,0,3.69.72,3.69.72a8.61,8.61,0,0,0,5.1,2.74h12.23c1.61,0,1.58-1.16,1.58-1.16m-22.81-31.33a7.38,7.38,0,0,0-3.21,1.31s-.87.72-4.09.72H660.24a3.86,3.86,0,0,0,0,7.71h48.55s5.29.2,5.29-3.64c0-6-10-6.1-10-6.1Z" transform="translate(-629.99 -332)"/></svg>